<mxfile host="Electron" agent="Mozilla/5.0 (Windows NT 10.0; Win64; x64) AppleWebKit/537.36 (KHTML, like Gecko) draw.io/27.0.5 Chrome/134.0.6998.205 Electron/35.3.0 Safari/537.36" version="27.0.5">
  <diagram name="第 1 页" id="O3P1vBdsVRBMSsJRiNc_">
    <mxGraphModel dx="1188" dy="701" grid="1" gridSize="10" guides="1" tooltips="1" connect="1" arrows="1" fold="1" page="1" pageScale="1" pageWidth="1169" pageHeight="827" background="none" math="0" shadow="0">
      <root>
        <mxCell id="0" />
        <mxCell id="1" parent="0" />
        <mxCell id="_XB7vDCoRJJ4zmznVkyD-1" value="modal.html" style="rounded=1;whiteSpace=wrap;html=1;fillColor=#f5f5f5;fontColor=#333333;strokeColor=#666666;" parent="1" vertex="1">
          <mxGeometry x="225" y="250" width="90" height="40" as="geometry" />
        </mxCell>
        <mxCell id="_XB7vDCoRJJ4zmznVkyD-7" value="" style="swimlane;startSize=0;fillColor=default;strokeColor=#6c8ebf;" parent="1" vertex="1">
          <mxGeometry x="190" y="360" width="160" height="200" as="geometry">
            <mxRectangle x="440" y="320" width="50" height="40" as="alternateBounds" />
          </mxGeometry>
        </mxCell>
        <mxCell id="_XB7vDCoRJJ4zmznVkyD-12" value="modal_login.html" style="rounded=1;whiteSpace=wrap;html=1;fillColor=#dae8fc;strokeColor=#6c8ebf;" parent="_XB7vDCoRJJ4zmznVkyD-7" vertex="1">
          <mxGeometry x="22.5" y="20" width="115" height="40" as="geometry" />
        </mxCell>
        <mxCell id="_XB7vDCoRJJ4zmznVkyD-13" value="modal_upload.html" style="rounded=1;whiteSpace=wrap;html=1;fillColor=#dae8fc;strokeColor=#6c8ebf;" parent="_XB7vDCoRJJ4zmznVkyD-7" vertex="1">
          <mxGeometry x="22.5" y="80" width="115" height="40" as="geometry" />
        </mxCell>
        <mxCell id="24K-9od45FCrW-vjveQT-1" value="modal_share.html" style="rounded=1;whiteSpace=wrap;html=1;fillColor=#dae8fc;strokeColor=#6c8ebf;" parent="_XB7vDCoRJJ4zmznVkyD-7" vertex="1">
          <mxGeometry x="22.5" y="140" width="115" height="40" as="geometry" />
        </mxCell>
        <mxCell id="_XB7vDCoRJJ4zmznVkyD-8" value="" style="endArrow=classic;html=1;rounded=1;curved=0;" parent="1" source="_XB7vDCoRJJ4zmznVkyD-1" target="_XB7vDCoRJJ4zmznVkyD-7" edge="1">
          <mxGeometry width="50" height="50" relative="1" as="geometry">
            <mxPoint x="550" y="500" as="sourcePoint" />
            <mxPoint x="600" y="450" as="targetPoint" />
          </mxGeometry>
        </mxCell>
        <mxCell id="_XB7vDCoRJJ4zmznVkyD-10" value="extends" style="edgeLabel;html=1;align=center;verticalAlign=middle;resizable=0;points=[];fontFamily=Lucida Console;" parent="_XB7vDCoRJJ4zmznVkyD-8" vertex="1" connectable="0">
          <mxGeometry x="-0.2286" y="-3" relative="1" as="geometry">
            <mxPoint x="3" y="-3" as="offset" />
          </mxGeometry>
        </mxCell>
        <mxCell id="_XB7vDCoRJJ4zmznVkyD-16" value="base.html" style="rounded=1;whiteSpace=wrap;html=1;fontStyle=1;fillColor=#fff2cc;strokeColor=#d6b656;" parent="1" vertex="1">
          <mxGeometry x="420" y="440" width="90" height="40" as="geometry" />
        </mxCell>
        <mxCell id="_XB7vDCoRJJ4zmznVkyD-17" value="" style="endArrow=classic;html=1;rounded=1;exitX=1;exitY=0.5;exitDx=0;exitDy=0;curved=0;" parent="1" source="_XB7vDCoRJJ4zmznVkyD-7" target="_XB7vDCoRJJ4zmznVkyD-16" edge="1">
          <mxGeometry width="50" height="50" relative="1" as="geometry">
            <mxPoint x="380" y="420" as="sourcePoint" />
            <mxPoint x="410" y="440" as="targetPoint" />
          </mxGeometry>
        </mxCell>
        <mxCell id="_XB7vDCoRJJ4zmznVkyD-18" value="include" style="edgeLabel;html=1;align=center;verticalAlign=middle;resizable=0;points=[];fontFamily=Lucida Console;" parent="_XB7vDCoRJJ4zmznVkyD-17" vertex="1" connectable="0">
          <mxGeometry x="-0.1049" relative="1" as="geometry">
            <mxPoint y="-10" as="offset" />
          </mxGeometry>
        </mxCell>
        <mxCell id="_XB7vDCoRJJ4zmznVkyD-19" value="&lt;span style=&quot;font-weight: normal;&quot;&gt;forecast.html&lt;/span&gt;" style="rounded=1;whiteSpace=wrap;html=1;fontStyle=1;fillColor=#fff2cc;strokeColor=#d6b656;" parent="1" vertex="1">
          <mxGeometry x="650" y="500" width="90" height="40" as="geometry" />
        </mxCell>
        <mxCell id="_XB7vDCoRJJ4zmznVkyD-20" value="" style="endArrow=classic;html=1;rounded=1;curved=0;" parent="1" source="_XB7vDCoRJJ4zmznVkyD-16" target="o2siWDHt-5MXugR9_ysx-9" edge="1">
          <mxGeometry width="50" height="50" relative="1" as="geometry">
            <mxPoint x="360" y="490" as="sourcePoint" />
            <mxPoint x="630" y="460" as="targetPoint" />
          </mxGeometry>
        </mxCell>
        <mxCell id="_XB7vDCoRJJ4zmznVkyD-21" value="extends" style="edgeLabel;html=1;align=center;verticalAlign=middle;resizable=0;points=[];fontFamily=Lucida Console;" parent="_XB7vDCoRJJ4zmznVkyD-20" vertex="1" connectable="0">
          <mxGeometry x="-0.0278" y="2" relative="1" as="geometry">
            <mxPoint x="-38" y="-8" as="offset" />
          </mxGeometry>
        </mxCell>
        <mxCell id="_XB7vDCoRJJ4zmznVkyD-23" value="" style="endArrow=classic;html=1;rounded=0;" parent="1" source="o2siWDHt-5MXugR9_ysx-16" target="o2siWDHt-5MXugR9_ysx-21" edge="1">
          <mxGeometry width="50" height="50" relative="1" as="geometry">
            <mxPoint x="830" y="459.66" as="sourcePoint" />
            <mxPoint x="960" y="460" as="targetPoint" />
          </mxGeometry>
        </mxCell>
        <mxCell id="_XB7vDCoRJJ4zmznVkyD-24" value="&lt;font&gt;render_template()&lt;/font&gt;" style="edgeLabel;html=1;align=center;verticalAlign=middle;resizable=0;points=[];fontFamily=Lucida Console;" parent="_XB7vDCoRJJ4zmznVkyD-23" vertex="1" connectable="0">
          <mxGeometry x="-0.0667" y="2" relative="1" as="geometry">
            <mxPoint x="-2" y="-8" as="offset" />
          </mxGeometry>
        </mxCell>
        <mxCell id="_XB7vDCoRJJ4zmznVkyD-2" value="modal_register.html" style="rounded=1;whiteSpace=wrap;html=1;fillColor=#dae8fc;strokeColor=#6c8ebf;" parent="1" vertex="1">
          <mxGeometry x="407.5" y="250" width="115" height="40" as="geometry" />
        </mxCell>
        <mxCell id="o2siWDHt-5MXugR9_ysx-1" value="" style="endArrow=classic;html=1;rounded=1;curved=0;" edge="1" parent="1" source="_XB7vDCoRJJ4zmznVkyD-1" target="_XB7vDCoRJJ4zmznVkyD-2">
          <mxGeometry width="50" height="50" relative="1" as="geometry">
            <mxPoint x="450" y="320" as="sourcePoint" />
            <mxPoint x="450" y="390" as="targetPoint" />
          </mxGeometry>
        </mxCell>
        <mxCell id="o2siWDHt-5MXugR9_ysx-2" value="extends" style="edgeLabel;html=1;align=center;verticalAlign=middle;resizable=0;points=[];fontFamily=Lucida Console;" vertex="1" connectable="0" parent="o2siWDHt-5MXugR9_ysx-1">
          <mxGeometry x="-0.2286" y="-3" relative="1" as="geometry">
            <mxPoint x="3" y="-3" as="offset" />
          </mxGeometry>
        </mxCell>
        <mxCell id="o2siWDHt-5MXugR9_ysx-4" value="" style="endArrow=classic;html=1;rounded=1;edgeStyle=orthogonalEdgeStyle;curved=0;" edge="1" parent="1" source="_XB7vDCoRJJ4zmznVkyD-2" target="o2siWDHt-5MXugR9_ysx-7">
          <mxGeometry width="50" height="50" relative="1" as="geometry">
            <mxPoint x="370" y="540" as="sourcePoint" />
            <mxPoint x="690" y="310" as="targetPoint" />
          </mxGeometry>
        </mxCell>
        <mxCell id="o2siWDHt-5MXugR9_ysx-5" value="include" style="edgeLabel;html=1;align=center;verticalAlign=middle;resizable=0;points=[];fontFamily=Lucida Console;" vertex="1" connectable="0" parent="o2siWDHt-5MXugR9_ysx-4">
          <mxGeometry x="-0.1049" relative="1" as="geometry">
            <mxPoint x="-49" as="offset" />
          </mxGeometry>
        </mxCell>
        <mxCell id="o2siWDHt-5MXugR9_ysx-6" value="" style="edgeStyle=elbowEdgeStyle;elbow=horizontal;endArrow=classic;html=1;curved=0;rounded=1;endSize=6;startSize=6;" edge="1" parent="1" source="_XB7vDCoRJJ4zmznVkyD-16" target="o2siWDHt-5MXugR9_ysx-7">
          <mxGeometry width="50" height="50" relative="1" as="geometry">
            <mxPoint x="540" y="590" as="sourcePoint" />
            <mxPoint x="590" y="540" as="targetPoint" />
          </mxGeometry>
        </mxCell>
        <mxCell id="o2siWDHt-5MXugR9_ysx-7" value="&lt;span style=&quot;font-weight: 700;&quot;&gt;index.html&lt;/span&gt;" style="rounded=1;whiteSpace=wrap;html=1;fillColor=#fff2cc;strokeColor=#d6b656;" vertex="1" parent="1">
          <mxGeometry x="650" y="380" width="90" height="40" as="geometry" />
        </mxCell>
        <mxCell id="o2siWDHt-5MXugR9_ysx-9" value="product.html" style="rounded=1;whiteSpace=wrap;html=1;fillColor=#fff2cc;strokeColor=#d6b656;fontStyle=1" vertex="1" parent="1">
          <mxGeometry x="650" y="440" width="90" height="40" as="geometry" />
        </mxCell>
        <mxCell id="o2siWDHt-5MXugR9_ysx-10" value="" style="edgeStyle=elbowEdgeStyle;elbow=horizontal;endArrow=classic;html=1;curved=0;rounded=1;endSize=6;startSize=6;" edge="1" parent="1" source="_XB7vDCoRJJ4zmznVkyD-16" target="_XB7vDCoRJJ4zmznVkyD-19">
          <mxGeometry width="50" height="50" relative="1" as="geometry">
            <mxPoint x="520" y="470" as="sourcePoint" />
            <mxPoint x="580" y="570" as="targetPoint" />
          </mxGeometry>
        </mxCell>
        <mxCell id="o2siWDHt-5MXugR9_ysx-12" value="notification.html" style="rounded=1;whiteSpace=wrap;html=1;fillColor=#dae8fc;strokeColor=#6c8ebf;" vertex="1" parent="1">
          <mxGeometry x="407.5" y="560" width="115" height="40" as="geometry" />
        </mxCell>
        <mxCell id="o2siWDHt-5MXugR9_ysx-14" value="" style="endArrow=classic;html=1;rounded=1;curved=0;" edge="1" parent="1" source="o2siWDHt-5MXugR9_ysx-12" target="_XB7vDCoRJJ4zmznVkyD-16">
          <mxGeometry width="50" height="50" relative="1" as="geometry">
            <mxPoint x="400" y="550" as="sourcePoint" />
            <mxPoint x="470" y="550" as="targetPoint" />
          </mxGeometry>
        </mxCell>
        <mxCell id="o2siWDHt-5MXugR9_ysx-15" value="include" style="edgeLabel;html=1;align=center;verticalAlign=middle;resizable=0;points=[];fontFamily=Lucida Console;" vertex="1" connectable="0" parent="o2siWDHt-5MXugR9_ysx-14">
          <mxGeometry x="-0.1049" relative="1" as="geometry">
            <mxPoint as="offset" />
          </mxGeometry>
        </mxCell>
        <mxCell id="o2siWDHt-5MXugR9_ysx-16" value="" style="rhombus;whiteSpace=wrap;html=1;fillColor=none;" vertex="1" parent="1">
          <mxGeometry x="800" y="445" width="30" height="30" as="geometry" />
        </mxCell>
        <mxCell id="o2siWDHt-5MXugR9_ysx-17" value="" style="endArrow=none;html=1;rounded=1;curved=0;" edge="1" parent="1" source="o2siWDHt-5MXugR9_ysx-16" target="o2siWDHt-5MXugR9_ysx-9">
          <mxGeometry width="50" height="50" relative="1" as="geometry">
            <mxPoint x="630" y="510" as="sourcePoint" />
            <mxPoint x="680" y="460" as="targetPoint" />
          </mxGeometry>
        </mxCell>
        <mxCell id="o2siWDHt-5MXugR9_ysx-18" value="" style="endArrow=none;html=1;rounded=1;edgeStyle=orthogonalEdgeStyle;exitX=0.5;exitY=1;exitDx=0;exitDy=0;entryX=1;entryY=0.5;entryDx=0;entryDy=0;curved=0;" edge="1" parent="1" source="o2siWDHt-5MXugR9_ysx-16" target="_XB7vDCoRJJ4zmznVkyD-19">
          <mxGeometry width="50" height="50" relative="1" as="geometry">
            <mxPoint x="1020" y="520" as="sourcePoint" />
            <mxPoint x="890" y="600" as="targetPoint" />
          </mxGeometry>
        </mxCell>
        <mxCell id="o2siWDHt-5MXugR9_ysx-20" value="" style="endArrow=none;html=1;rounded=1;edgeStyle=orthogonalEdgeStyle;entryX=1;entryY=0.5;entryDx=0;entryDy=0;exitX=0.5;exitY=0;exitDx=0;exitDy=0;curved=0;" edge="1" parent="1" source="o2siWDHt-5MXugR9_ysx-16" target="o2siWDHt-5MXugR9_ysx-7">
          <mxGeometry width="50" height="50" relative="1" as="geometry">
            <mxPoint x="825" y="485" as="sourcePoint" />
            <mxPoint x="750" y="530" as="targetPoint" />
          </mxGeometry>
        </mxCell>
        <mxCell id="o2siWDHt-5MXugR9_ysx-21" value="&lt;span style=&quot;font-weight: normal;&quot;&gt;Browser&lt;/span&gt;" style="rounded=1;whiteSpace=wrap;html=1;fontStyle=1;fillColor=#d5e8d4;strokeColor=#82b366;" vertex="1" parent="1">
          <mxGeometry x="960" y="440" width="90" height="40" as="geometry" />
        </mxCell>
        <mxCell id="o2siWDHt-5MXugR9_ysx-24" value="" style="endArrow=classic;html=1;rounded=1;edgeStyle=orthogonalEdgeStyle;curved=0;" edge="1" parent="1" source="o2siWDHt-5MXugR9_ysx-12" target="_XB7vDCoRJJ4zmznVkyD-19">
          <mxGeometry width="50" height="50" relative="1" as="geometry">
            <mxPoint x="533" y="280" as="sourcePoint" />
            <mxPoint x="705" y="390" as="targetPoint" />
          </mxGeometry>
        </mxCell>
        <mxCell id="o2siWDHt-5MXugR9_ysx-25" value="redirect" style="edgeLabel;html=1;align=center;verticalAlign=middle;resizable=0;points=[];fontFamily=Lucida Console;" vertex="1" connectable="0" parent="o2siWDHt-5MXugR9_ysx-24">
          <mxGeometry x="-0.1049" relative="1" as="geometry">
            <mxPoint x="-8" as="offset" />
          </mxGeometry>
        </mxCell>
      </root>
    </mxGraphModel>
  </diagram>
</mxfile>
